<?xml version="1.0" encoding="UTF-8"?>
<svg id="_레이어_1" data-name="레이어_1" xmlns="http://www.w3.org/2000/svg" version="1.1" viewBox="0 0 1024 1024">
  <!-- Generator: Adobe Illustrator 29.7.1, SVG Export Plug-In . SVG Version: 2.1.1 Build 8)  -->
  <path d="M730.34,564.28c.04,1.61,1.35,2.88,2.97,2.89,8.92.09,19.32,2.54,22.24,11.83,1.42,4.52-.89,16.5,4.61,14.36,37.13-14.43,3.21-64.76,44.06-77.34,5.65-1.74,12.14-.02,16.85-2.26,2.72-1.29,3.68-6.2,6.5-8.41,21.48-16.78,56.68-7.35,67.38,17.83,15.67,36.9-8.25,78.18-33.45,104.67-5.05,5.31-25.2,19.98-28.25,25.27-.25.44-.36.95-.35,1.46.34,18.06-.45,36.18-.09,54.24.63,32.02,7.25,76.21,4.95,107.02-2.47,33.15-39.09,50.44-67.68,34.02-28.13-16.16-16.14-49.55-15.75-74.45.42-27.04.48-54.41-1.13-81.38-.11-1.79-1.77-3.1-3.53-2.76-17.93,3.46-20.3,25.41-29.29,40.77-20.52,35.09-52.42,67.43-88.66,86.82-4.09,2.19-6.74,6.45-6.71,11.09.18,21.17-17.8,44.59-38.76,46.54-40.72,3.79-123.86,3.62-164.72-.02-15.14-1.35-38.33-13.38-42.97-28.48-2.1-6.84.41-16.69-3.23-22.35-1.24-1.93-23.51-13.46-28.59-17.25-27.03-20.18-53.71-50.57-69.76-80.23-3.99-7.38-12.54-31.96-15.09-34.88-2.14-2.45-5.84-2.24-8.95-3.15-1.74-.51-3.53.65-3.8,2.44-.92,6.07-.77,12.71-.46,18.63,1.81,33.77,6.76,68.42,7.44,102.15.89,43.87-70.84,63.96-87.74,14.08-.08-.24-.13-.49-.15-.74-4.12-48.02-2.04-100.17-.61-148.99.19-6.52,3.12-12.72,2.71-19.32-.06-.91-.52-1.73-1.26-2.26-25.86-18.24-53.75-50.27-63.41-80.51-12.87-40.27,7.28-84.05,55.04-73.92,11.04,2.34,15.64,11.31,20.6,12.74,5.46,1.58,12.12-.32,18.1.97,17.89,3.84,25.84,46.9,22.48,64.38-.22,1.15.28,2.33,1.24,3l13.55,9.52c1.96,1.37,4.63-.01,4.68-2.4.27-13.02,6.62-19.73,21.06-18.33,1.67.16,3.11-1.14,3.21-2.81,3.04-52.29,17.72-102.71,52.23-143.1,8.04-9.4,25.7-26.82,36.04-33.02,7.8-4.68,19.8-6.87,24.9-10.83,8.4-6.53,20.37-26.21,30.85-35.82,53.4-48.95,133.95-49.05,184.82,3.65,6.17,6.39,17.36,27.71,20.09,29.89,3.44,2.75,9.9,2.45,14.25,4.81,67.4,36.6,99.56,104.81,101.51,179.91ZM727.74,599.34c.14-1.82-1.38-3.34-3.2-3.21-32.12,2.32-20.69-26.69-22.79-49.08-5.15-55-32.25-107.81-80.93-135.68-6.43-3.68-14.13-4.19-20.39-8.2-10.3-6.59-13.24-18.55-20.29-27.32-40.54-50.39-111.03-50.94-155.86-5.76-11.51,11.61-18.39,30.6-31.89,37.16-24.5,11.9-31.92,11.13-51.83,33.91-34.78,39.81-47.67,92.89-46.97,144.99,0,.52-.11,1.04-.37,1.5-4.2,7.3-11.6,10.78-19.71,10.71-1.74-.02-3.12,1.49-2.97,3.23,7.02,79.35,35.95,148.22,104.81,192.55,6.28,4.04,21.07,8.99,24.76,13.35,8.45,9.97-2.26,37.73,19.03,40.47,23.58,3.03,57,2.5,81.28,2.36,5.62-.03,14.97.26,20.61.13,13.83-.32,57.59.07,66.28-3.83,15.54-6.98,10.93-30.6,15.79-38.55,1.18-1.93,27.35-18.53,34.11-23.45,62.08-45.13,84.77-111.28,90.53-185.27ZM865.56,527.55c-2.71-1.95-11.12-3.62-15.42-3.11-.78.09-1.5.5-1.99,1.12-11.14,14.44-11.94,33.25-34.19,24.77-1.48-.57-3.18.08-3.81,1.53-5.56,12.93-.87,25.1-7.75,38.43-9.34,18.11-30.42,27.34-47.94,35.82-.84.41-1.44,1.19-1.62,2.1l-4.78,24.44c-.44,2.23,1.67,4.1,3.83,3.41,40.01-12.86,85.47-33.95,107.71-70.55,7.76-12.76,20.37-47.61,5.96-57.98ZM166,542.81c-4.95-5.09-1.06-11.97-13.63-13.73-11.59-1.62-18.55.09-21.63,11.94-9.08,34.91,31.56,76.79,58.66,93.8,6.82,4.28,44.92,23.66,57.86,25.58,2.02.3,3.74-1.46,3.38-3.47l-5.12-28.49c-.19-1.05-.93-1.93-1.94-2.28-18.09-6.24-46.35-20.95-49.46-41.24-1.86-12.11,1.9-25.84-2.46-38.22-.18-.52-.51-1-.95-1.33-5.32-4.01-16.87,5.51-24.72-2.56ZM804.39,670.14c-.06-1.86-1.79-3.2-3.61-2.81-6.33,1.34-18.77,6.07-17.97,10.46,4.81,44.92-7.67,96.61-2.49,140.47.31,2.63.09,5.19,2.46,7.05,7.87,6.48,23.78,3.73,26.16-6.86.06-.25.08-.51.07-.77l-4.62-147.54ZM224.34,823.46c7.15-7.58,1.01-27.25.65-36.28-1.37-34.13-2.56-68.17-4.78-102.25.32-4.74-13.41-11.24-20.23-12.91-1.85-.45-3.64.94-3.67,2.85l-2.21,140.73c.58,15.73,21.94,16.65,30.23,7.86Z"/>
  <path d="M237.96,510.16l-14.47-15.65c-1.02-1.1-1.54-2.57-1.47-4.08,1.37-31.55-7.8-76.79,9.31-103.79,9.22-14.54,30.37-24.19,39.08-41.1,2.12-4.12-1.46-8.91-6.01-8.01-16.07,3.16-31.07,1.1-43.57-10.7-1.97-1.86-4.97-2.09-7.15-.49-13.5,9.9-25.94,13.94-41.61,11.31-4.72-.79-8.08,4.41-5.57,8.49,11.56,18.8,36.72,28.08,42.69,51.55.1.4.16.82.17,1.24l2.29,78.45c.11,3.75-3.45,6.54-7.06,5.53l-14.82-4.11c-2.16-.6-3.77-2.43-4.04-4.65-1.35-11.18.61-41.5-.11-49.81-3.21-37.21-22.01-32.58-40.08-57.52-7.6-10.48-14.74-27.82-16.48-40.63-4.79-35.31-4.06-124.72-.73-161.2,2.22-24.33,30.61-21.85,35.14-9.59.17.45.24.93.28,1.41,2.68,38.72-1.99,79.3.35,117.78.4,6.64,1.42,20.15,2.53,26.01,2.4,12.6,27.84,16.3,30.79-2.48,6.48-41.17-5.33-96.07,1.14-138.79.03-.22.08-.44.13-.65,5.16-20.14,35.67-17.79,37.07,3.77,0,.15.01.3.01.45v137.06c0,.43.04.86.14,1.27,3.36,13.31,30,13.74,30.65-3.1l1.21-137.68c0-.99.29-1.95.78-2.81,11.7-20.14,36.57-14.5,38.81,9.73,3.21,34.85,3.96,141.23-3.6,172.61-9.19,38.18-26.18,33.11-45.41,56.96-2.62,3.25-10.71,14.71-10.71,17.86v91.58c0,5.07-6.22,7.51-9.67,3.79Z"/>
  <path d="M810.75,479.77l5.38-89.31c.03-.46.1-.92.24-1.36,5.28-17.53,21.12-23.78,32.11-36.08,29.38-32.88,25.37-93.21,10.65-132-21.27-56.07-71.92-67.86-100.6-10.04-20.11,40.54-22.22,106.91,7.85,142.98,6.24,7.48,13.47,10.87,18.96,16.76,27.53,29.56,15.77,77.36,17.18,114.78.06,1.62-.52,3.19-1.65,4.36l-17.05,17.56c-3.73,3.84-10.23,1.1-10.08-4.26l2.57-91.52c.02-.68-.07-1.37-.29-2.01-7.58-22.75-28.72-32.7-41.56-54.74-31.66-54.36-20.92-170.72,40.83-200.9,100.84-49.29,145.37,117.12,110.99,189.18-10.12,21.21-38.32,39.74-44.37,53.24-6.83,15.24-1.55,47.92-2.93,66.04-1.54,20.12-6.24,20.71-21.31,23.45-3.75.68-7.15-2.33-6.92-6.13Z"/>
  <path d="M443.05,549.13c.95-1.47,2.68-2.23,4.4-1.95,10.09,1.63,18.3,8.5,27.76,11.58,33.54,10.89,59.35,2.94,89.52-10.37,1.96-.87,4.27-.17,5.44,1.62h0c1.07,1.64.94,3.8-.35,5.28-30.54,35.13-94.46,32.74-126.65-.05-1.44-1.47-1.66-3.74-.54-5.47l.42-.65Z"/>
  <path d="M442.36,503.22c-13.49,14.76-35.28-4.23-29.17-23.15,10.8-33.45,50.84-.56,29.17,23.15Z"/>
  <path d="M590.18,503.22c-13.49,14.76-35.28-4.23-29.17-23.15,10.8-33.45,50.84-.56,29.17,23.15Z"/>
</svg>