<svg width="357" height="191" viewBox="0 0 357 191" fill="none" xmlns="http://www.w3.org/2000/svg">
<g filter="url(#filter0_d_1_3439)">
<rect x="4" y="2" width="348.668" height="164" rx="28" fill="#F9FBFD" shape-rendering="crispEdges"/>
<path d="M141.801 182.333L139.521 173.878H140.893L142.445 180.446H142.521L144.285 173.878H145.51L147.285 180.446H147.361L148.908 173.878H150.273L147.994 182.333H146.752L144.936 176.017H144.859L143.043 182.333H141.801ZM151.732 182.333V175.97H153.01V182.333H151.732ZM152.377 174.833C152.158 174.833 151.971 174.755 151.814 174.599C151.658 174.442 151.58 174.255 151.58 174.036C151.58 173.817 151.658 173.632 151.814 173.479C151.971 173.323 152.158 173.245 152.377 173.245C152.596 173.245 152.783 173.323 152.939 173.479C153.096 173.632 153.174 173.817 153.174 174.036C153.174 174.255 153.096 174.442 152.939 174.599C152.783 174.755 152.596 174.833 152.377 174.833ZM157.176 182.438C156.645 182.438 156.18 182.306 155.781 182.04C155.387 181.771 155.08 181.39 154.861 180.897C154.646 180.405 154.539 179.825 154.539 179.157V179.146C154.539 178.474 154.646 177.892 154.861 177.399C155.076 176.907 155.381 176.528 155.775 176.263C156.17 175.993 156.637 175.858 157.176 175.858C157.469 175.858 157.742 175.905 157.996 175.999C158.25 176.089 158.475 176.218 158.67 176.386C158.865 176.55 159.02 176.747 159.133 176.978H159.227V173.474H160.504V182.333H159.227V181.331H159.133C159.008 181.562 158.85 181.761 158.658 181.929C158.467 182.093 158.246 182.22 157.996 182.31C157.746 182.396 157.473 182.438 157.176 182.438ZM157.539 181.349C157.891 181.349 158.195 181.261 158.453 181.085C158.711 180.909 158.908 180.657 159.045 180.329C159.182 179.997 159.25 179.606 159.25 179.157V179.146C159.25 178.692 159.18 178.302 159.039 177.974C158.902 177.646 158.705 177.394 158.447 177.218C158.193 177.038 157.891 176.948 157.539 176.948C157.188 176.948 156.883 177.038 156.625 177.218C156.371 177.394 156.176 177.646 156.039 177.974C155.906 178.298 155.84 178.688 155.84 179.146V179.157C155.84 179.61 155.906 180.001 156.039 180.329C156.176 180.657 156.371 180.909 156.625 181.085C156.883 181.261 157.188 181.349 157.539 181.349ZM165.08 184.577C164.541 184.577 164.072 184.503 163.674 184.354C163.279 184.206 162.967 183.999 162.736 183.733C162.506 183.468 162.365 183.159 162.314 182.808L162.32 182.796H163.609L163.615 182.808C163.67 183.026 163.824 183.206 164.078 183.347C164.332 183.487 164.672 183.558 165.098 183.558C165.621 183.558 166.029 183.438 166.322 183.2C166.619 182.962 166.768 182.628 166.768 182.198V180.95H166.668C166.543 181.177 166.383 181.372 166.188 181.536C165.992 181.696 165.77 181.817 165.52 181.899C165.27 181.981 164.998 182.022 164.705 182.022C164.166 182.022 163.697 181.894 163.299 181.636C162.904 181.374 162.6 181.015 162.385 180.558C162.174 180.097 162.068 179.567 162.068 178.97V178.958C162.068 178.353 162.176 177.817 162.391 177.353C162.605 176.884 162.912 176.519 163.311 176.257C163.709 175.991 164.184 175.858 164.734 175.858C165.031 175.858 165.303 175.905 165.549 175.999C165.799 176.093 166.02 176.226 166.211 176.397C166.402 176.569 166.561 176.774 166.686 177.013H166.762V175.97H168.033V182.204C168.033 182.685 167.912 183.103 167.67 183.458C167.432 183.813 167.092 184.089 166.65 184.284C166.209 184.479 165.686 184.577 165.08 184.577ZM165.062 180.968C165.422 180.968 165.73 180.884 165.988 180.716C166.246 180.544 166.443 180.308 166.58 180.007C166.721 179.706 166.791 179.358 166.791 178.964V178.952C166.791 178.562 166.721 178.214 166.58 177.909C166.443 177.604 166.246 177.366 165.988 177.194C165.73 177.022 165.422 176.937 165.062 176.937C164.703 176.937 164.396 177.022 164.143 177.194C163.893 177.366 163.701 177.604 163.568 177.909C163.436 178.21 163.369 178.558 163.369 178.952V178.964C163.369 179.358 163.436 179.706 163.568 180.007C163.701 180.308 163.893 180.544 164.143 180.716C164.396 180.884 164.703 180.968 165.062 180.968ZM172.539 182.456C171.918 182.456 171.385 182.323 170.939 182.058C170.494 181.788 170.15 181.407 169.908 180.915C169.67 180.423 169.551 179.841 169.551 179.169V179.163C169.551 178.499 169.67 177.919 169.908 177.423C170.15 176.927 170.49 176.54 170.928 176.263C171.369 175.985 171.885 175.847 172.475 175.847C173.068 175.847 173.578 175.979 174.004 176.245C174.434 176.511 174.764 176.884 174.994 177.364C175.225 177.841 175.34 178.399 175.34 179.04V179.485H170.195V178.577H174.707L174.098 179.421V178.911C174.098 178.458 174.027 178.083 173.887 177.786C173.75 177.485 173.561 177.261 173.318 177.112C173.076 176.964 172.797 176.89 172.48 176.89C172.164 176.89 171.881 176.968 171.631 177.124C171.385 177.276 171.189 177.503 171.045 177.804C170.904 178.104 170.834 178.474 170.834 178.911V179.421C170.834 179.839 170.904 180.196 171.045 180.493C171.186 180.79 171.385 181.017 171.643 181.173C171.904 181.329 172.213 181.407 172.568 181.407C172.842 181.407 173.076 181.37 173.271 181.296C173.471 181.218 173.633 181.122 173.758 181.009C173.887 180.896 173.975 180.784 174.021 180.675L174.045 180.628H175.275L175.264 180.681C175.209 180.892 175.113 181.103 174.977 181.313C174.84 181.521 174.658 181.71 174.432 181.882C174.209 182.054 173.939 182.192 173.623 182.298C173.311 182.403 172.949 182.456 172.539 182.456ZM179.254 182.374C178.559 182.374 178.055 182.241 177.742 181.976C177.434 181.706 177.279 181.267 177.279 180.657V176.972H176.283V175.97H177.279V174.364H178.58V175.97H179.945V176.972H178.58V180.347C178.58 180.69 178.648 180.938 178.785 181.091C178.922 181.239 179.148 181.313 179.465 181.313C179.559 181.313 179.639 181.312 179.705 181.308C179.775 181.304 179.855 181.298 179.945 181.29V182.31C179.844 182.325 179.734 182.339 179.617 182.351C179.5 182.366 179.379 182.374 179.254 182.374ZM184.85 182.333V173.878H186.039L190.703 180.481L189.807 180.019H190.469V173.878H191.752V182.333H190.562L185.893 175.735L186.795 176.198H186.127V182.333H184.85ZM195.473 182.438C195.07 182.438 194.709 182.362 194.389 182.21C194.072 182.054 193.822 181.833 193.639 181.548C193.455 181.263 193.363 180.929 193.363 180.546V180.534C193.363 180.151 193.455 179.825 193.639 179.556C193.826 179.286 194.096 179.075 194.447 178.923C194.803 178.767 195.232 178.673 195.736 178.642L198.086 178.501V179.397L195.912 179.538C195.475 179.565 195.152 179.659 194.945 179.819C194.738 179.976 194.635 180.196 194.635 180.481V180.493C194.635 180.782 194.746 181.011 194.969 181.179C195.191 181.343 195.473 181.425 195.812 181.425C196.129 181.425 196.41 181.362 196.656 181.237C196.906 181.108 197.102 180.937 197.242 180.722C197.383 180.503 197.453 180.257 197.453 179.983V177.979C197.453 177.628 197.344 177.36 197.125 177.177C196.91 176.989 196.59 176.896 196.164 176.896C195.809 176.896 195.518 176.958 195.291 177.083C195.068 177.208 194.92 177.384 194.846 177.61L194.834 177.628H193.609L193.615 177.587C193.666 177.235 193.805 176.931 194.031 176.673C194.262 176.411 194.562 176.208 194.934 176.063C195.309 175.919 195.736 175.847 196.217 175.847C196.752 175.847 197.205 175.933 197.576 176.104C197.951 176.272 198.234 176.517 198.426 176.837C198.621 177.153 198.719 177.534 198.719 177.979V182.333H197.453V181.431H197.359C197.234 181.646 197.078 181.829 196.891 181.981C196.703 182.13 196.49 182.243 196.252 182.321C196.014 182.399 195.754 182.438 195.473 182.438ZM200.512 182.333V175.97H201.783V176.948H201.883C202.023 176.597 202.242 176.325 202.539 176.134C202.84 175.942 203.199 175.847 203.617 175.847C203.906 175.847 204.166 175.894 204.396 175.987C204.627 176.081 204.824 176.214 204.988 176.386C205.156 176.554 205.287 176.753 205.381 176.983H205.48C205.586 176.753 205.734 176.554 205.926 176.386C206.117 176.214 206.34 176.081 206.594 175.987C206.852 175.894 207.125 175.847 207.414 175.847C207.844 175.847 208.211 175.931 208.516 176.099C208.82 176.263 209.053 176.501 209.213 176.813C209.373 177.126 209.453 177.503 209.453 177.944V182.333H208.182V178.249C208.182 177.956 208.137 177.714 208.047 177.522C207.957 177.327 207.82 177.181 207.637 177.083C207.457 176.985 207.23 176.937 206.957 176.937C206.688 176.937 206.451 176.999 206.248 177.124C206.049 177.245 205.893 177.409 205.779 177.616C205.67 177.819 205.615 178.05 205.615 178.308V182.333H204.344V178.12C204.344 177.878 204.293 177.669 204.191 177.493C204.094 177.313 203.953 177.177 203.77 177.083C203.586 176.985 203.369 176.937 203.119 176.937C202.865 176.937 202.637 177.003 202.434 177.136C202.234 177.269 202.076 177.448 201.959 177.675C201.842 177.897 201.783 178.147 201.783 178.425V182.333H200.512ZM213.906 182.456C213.285 182.456 212.752 182.323 212.307 182.058C211.861 181.788 211.518 181.407 211.275 180.915C211.037 180.423 210.918 179.841 210.918 179.169V179.163C210.918 178.499 211.037 177.919 211.275 177.423C211.518 176.927 211.857 176.54 212.295 176.263C212.736 175.985 213.252 175.847 213.842 175.847C214.436 175.847 214.945 175.979 215.371 176.245C215.801 176.511 216.131 176.884 216.361 177.364C216.592 177.841 216.707 178.399 216.707 179.04V179.485H211.562V178.577H216.074L215.465 179.421V178.911C215.465 178.458 215.395 178.083 215.254 177.786C215.117 177.485 214.928 177.261 214.686 177.112C214.443 176.964 214.164 176.89 213.848 176.89C213.531 176.89 213.248 176.968 212.998 177.124C212.752 177.276 212.557 177.503 212.412 177.804C212.271 178.104 212.201 178.474 212.201 178.911V179.421C212.201 179.839 212.271 180.196 212.412 180.493C212.553 180.79 212.752 181.017 213.01 181.173C213.271 181.329 213.58 181.407 213.936 181.407C214.209 181.407 214.443 181.37 214.639 181.296C214.838 181.218 215 181.122 215.125 181.009C215.254 180.896 215.342 180.784 215.389 180.675L215.412 180.628H216.643L216.631 180.681C216.576 180.892 216.48 181.103 216.344 181.313C216.207 181.521 216.025 181.71 215.799 181.882C215.576 182.054 215.307 182.192 214.99 182.298C214.678 182.403 214.316 182.456 213.906 182.456Z" fill="white"/>
</g>
<path d="M59.7979 62.2305C59.5768 61.9365 59.3945 61.6243 59.251 61.2939C59.1074 60.9635 59.0003 60.6115 58.9297 60.2378C58.8613 59.8641 58.8271 59.4653 58.8271 59.0415C58.8271 58.6177 58.8613 58.2201 58.9297 57.8486C58.998 57.4749 59.104 57.1229 59.2476 56.7925C59.3911 56.4598 59.5745 56.1465 59.7979 55.8525H60.2969C60.1738 56.0098 60.0588 56.208 59.9517 56.4473C59.8468 56.6865 59.7557 56.9508 59.6782 57.2402C59.6007 57.5273 59.5404 57.8258 59.4971 58.1357C59.4538 58.4434 59.4321 58.7453 59.4321 59.0415C59.4321 59.34 59.4538 59.6442 59.4971 59.9541C59.5404 60.2617 59.6007 60.5602 59.6782 60.8496C59.7557 61.1367 59.8468 61.3988 59.9517 61.6357C60.0588 61.875 60.1738 62.0732 60.2969 62.2305H59.7979ZM62.9082 61.082C62.5596 61.082 62.2508 61.0216 61.9819 60.9009C61.7131 60.7801 61.5011 60.6138 61.3462 60.4019C61.1935 60.1877 61.1172 59.9427 61.1172 59.667V59.6602C61.1172 59.4574 61.1616 59.2694 61.2505 59.0962C61.3394 58.923 61.4635 58.776 61.623 58.6553C61.7826 58.5322 61.9671 58.4468 62.1768 58.3989V58.3853C61.9079 58.3009 61.6937 58.1619 61.5342 57.9683C61.3747 57.7746 61.2949 57.5479 61.2949 57.2881V57.2812C61.2949 57.0329 61.3644 56.8118 61.5034 56.6182C61.6424 56.4222 61.8338 56.2684 62.0776 56.1567C62.3215 56.0428 62.5983 55.9858 62.9082 55.9858C63.2204 55.9858 63.4972 56.0428 63.7388 56.1567C63.9826 56.2684 64.174 56.4222 64.313 56.6182C64.452 56.8118 64.5215 57.0329 64.5215 57.2812V57.2881C64.5215 57.5479 64.4417 57.7746 64.2822 57.9683C64.125 58.1619 63.9108 58.3009 63.6396 58.3853V58.3989C63.8516 58.4468 64.0361 58.5322 64.1934 58.6553C64.3529 58.776 64.4771 58.923 64.5659 59.0962C64.6548 59.2694 64.6992 59.4574 64.6992 59.6602V59.667C64.6992 59.9427 64.6229 60.1877 64.4702 60.4019C64.3175 60.6138 64.1056 60.7801 63.8345 60.9009C63.5656 61.0216 63.2568 61.082 62.9082 61.082ZM62.9082 60.5454C63.1361 60.5454 63.3366 60.5067 63.5098 60.4292C63.6852 60.3494 63.8231 60.2412 63.9233 60.1045C64.0236 59.9655 64.0737 59.8071 64.0737 59.6294V59.6226C64.0737 59.4425 64.0236 59.283 63.9233 59.144C63.8254 59.005 63.6886 58.8957 63.5132 58.8159C63.3377 58.7362 63.1361 58.6963 62.9082 58.6963C62.6803 58.6963 62.4787 58.7362 62.3032 58.8159C62.1278 58.8957 61.9899 59.005 61.8896 59.144C61.7917 59.283 61.7427 59.4425 61.7427 59.6226V59.6294C61.7427 59.8071 61.7928 59.9655 61.8931 60.1045C61.9933 60.2412 62.1312 60.3494 62.3066 60.4292C62.4821 60.5067 62.6826 60.5454 62.9082 60.5454ZM62.9082 58.1562C63.1064 58.1562 63.2808 58.1221 63.4312 58.0537C63.5815 57.9831 63.6989 57.8862 63.7832 57.7632C63.8675 57.6401 63.9097 57.4989 63.9097 57.3394V57.3325C63.9097 57.173 63.8675 57.0317 63.7832 56.9087C63.6989 56.7856 63.5815 56.6899 63.4312 56.6216C63.2808 56.5509 63.1064 56.5156 62.9082 56.5156C62.71 56.5156 62.5356 56.5509 62.3853 56.6216C62.2349 56.6899 62.1175 56.7856 62.0332 56.9087C61.9489 57.0317 61.9067 57.173 61.9067 57.3325V57.3394C61.9067 57.4989 61.9489 57.6401 62.0332 57.7632C62.1175 57.8862 62.2349 57.9831 62.3853 58.0537C62.5356 58.1221 62.71 58.1562 62.9082 58.1562ZM66.1826 60.2993C66.0618 60.2993 65.957 60.256 65.8682 60.1694C65.7816 60.0806 65.7383 59.9757 65.7383 59.855C65.7383 59.7319 65.7816 59.6271 65.8682 59.5405C65.957 59.4539 66.0618 59.4106 66.1826 59.4106C66.3057 59.4106 66.4105 59.4539 66.4971 59.5405C66.5837 59.6271 66.627 59.7319 66.627 59.855C66.627 59.9757 66.5837 60.0806 66.4971 60.1694C66.4105 60.256 66.3057 60.2993 66.1826 60.2993ZM66.1826 57.6538C66.0618 57.6538 65.957 57.6105 65.8682 57.5239C65.7816 57.4351 65.7383 57.3302 65.7383 57.2095C65.7383 57.0864 65.7816 56.9816 65.8682 56.895C65.957 56.8084 66.0618 56.7651 66.1826 56.7651C66.3057 56.7651 66.4105 56.8084 66.4971 56.895C66.5837 56.9816 66.627 57.0864 66.627 57.2095C66.627 57.3302 66.5837 57.4351 66.4971 57.5239C66.4105 57.6105 66.3057 57.6538 66.1826 57.6538ZM67.8062 61V60.5762L69.4741 58.7715C69.6838 58.5436 69.8478 58.3556 69.9663 58.2075C70.0848 58.0571 70.168 57.9215 70.2158 57.8008C70.2637 57.68 70.2876 57.5479 70.2876 57.4043V57.3975C70.2876 57.2243 70.25 57.0693 70.1748 56.9326C70.0996 56.7959 69.9925 56.6877 69.8535 56.6079C69.7145 56.5282 69.5482 56.4883 69.3545 56.4883C69.1585 56.4883 68.9865 56.5293 68.8384 56.6113C68.6903 56.6911 68.5752 56.8039 68.4932 56.9497C68.4111 57.0933 68.3701 57.2619 68.3701 57.4556L68.3667 57.4624L67.7788 57.459L67.772 57.4556C67.7743 57.1639 67.8449 56.9053 67.9839 56.6797C68.1229 56.4518 68.3143 56.2741 68.5581 56.1465C68.8019 56.0166 69.0811 55.9517 69.3955 55.9517C69.6826 55.9517 69.9412 56.012 70.1714 56.1328C70.4015 56.2513 70.5827 56.4142 70.7148 56.6216C70.8493 56.8289 70.9165 57.0659 70.9165 57.3325V57.3394C70.9165 57.5262 70.8835 57.7062 70.8174 57.8794C70.7536 58.0526 70.6396 58.2451 70.4756 58.457C70.3115 58.6667 70.0802 58.9253 69.7817 59.2329L68.5068 60.5488L68.6606 60.2651V60.5488L68.5103 60.4463H70.9985V61H67.8062ZM73.6816 61.1162C73.3171 61.1162 73.0049 61.0114 72.7451 60.8018C72.4876 60.5921 72.2894 60.2948 72.1504 59.9097C72.0114 59.5223 71.9419 59.0643 71.9419 58.5356V58.5288C71.9419 58.0002 72.0114 57.5433 72.1504 57.1582C72.2894 56.7731 72.4876 56.4757 72.7451 56.2661C73.0049 56.0565 73.3171 55.9517 73.6816 55.9517C74.0462 55.9517 74.3584 56.0565 74.6182 56.2661C74.8779 56.4757 75.0773 56.7731 75.2163 57.1582C75.3576 57.5433 75.4282 58.0002 75.4282 58.5288V58.5356C75.4282 59.0643 75.3576 59.5223 75.2163 59.9097C75.0773 60.2948 74.8779 60.5921 74.6182 60.8018C74.3584 61.0114 74.0462 61.1162 73.6816 61.1162ZM73.6816 60.5796C73.9186 60.5796 74.1203 60.4964 74.2866 60.3301C74.4552 60.1637 74.584 59.9279 74.6729 59.6226C74.764 59.3172 74.8096 58.9549 74.8096 58.5356V58.5288C74.8096 58.1095 74.764 57.7484 74.6729 57.4453C74.584 57.14 74.4552 56.9053 74.2866 56.7412C74.1203 56.5749 73.9186 56.4917 73.6816 56.4917C73.4469 56.4917 73.2453 56.5749 73.0767 56.7412C72.9103 56.9053 72.7827 57.14 72.6938 57.4453C72.605 57.7484 72.5605 58.1095 72.5605 58.5288V58.5356C72.5605 58.9549 72.605 59.3172 72.6938 59.6226C72.7827 59.9279 72.9103 60.1637 73.0767 60.3301C73.2453 60.4964 73.4469 60.5796 73.6816 60.5796ZM78.3608 59.291V58.7373H80.6577V59.291H78.3608ZM85.2925 55.9517C85.5181 55.9517 85.7402 55.995 85.959 56.0815C86.18 56.1681 86.3794 56.3083 86.5571 56.502C86.7371 56.6956 86.8807 56.952 86.9878 57.271C87.0949 57.5877 87.1484 57.9785 87.1484 58.4434V58.4502C87.1484 59.0107 87.0732 59.4904 86.9229 59.8892C86.7725 60.2856 86.556 60.5898 86.2734 60.8018C85.9909 61.0114 85.6502 61.1162 85.2515 61.1162C84.9757 61.1162 84.7262 61.0661 84.5029 60.9658C84.2819 60.8633 84.0973 60.7209 83.9492 60.5386C83.8011 60.3563 83.6986 60.1444 83.6416 59.9028L83.6313 59.8584H84.25L84.2637 59.896C84.3138 60.0327 84.3844 60.1512 84.4756 60.2515C84.569 60.3517 84.6807 60.4292 84.8105 60.4839C84.9427 60.5386 85.092 60.5659 85.2583 60.5659C85.5568 60.5659 85.7995 60.4793 85.9863 60.3062C86.1732 60.1307 86.3122 59.8983 86.4033 59.6089C86.4945 59.3195 86.5457 59.0039 86.5571 58.6621C86.5594 58.6302 86.5605 58.5994 86.5605 58.5698C86.5605 58.5379 86.5605 58.5072 86.5605 58.4775L86.4136 57.6572C86.4136 57.4408 86.3634 57.2448 86.2632 57.0693C86.1652 56.8939 86.0319 56.7549 85.8633 56.6523C85.6969 56.5475 85.509 56.4951 85.2993 56.4951C85.0942 56.4951 84.9074 56.5464 84.7388 56.6489C84.5701 56.7492 84.4357 56.8859 84.3354 57.0591C84.2352 57.23 84.1851 57.4225 84.1851 57.6367V57.6436C84.1851 57.8623 84.2329 58.0571 84.3286 58.228C84.4243 58.3966 84.5553 58.5299 84.7217 58.6279C84.888 58.7236 85.0771 58.7715 85.2891 58.7715C85.5033 58.7715 85.6947 58.7236 85.8633 58.6279C86.0319 58.5322 86.1652 58.4012 86.2632 58.2349C86.3634 58.0662 86.4136 57.8748 86.4136 57.6606V57.6572H86.6152V58.5459H86.4956C86.4364 58.6803 86.3452 58.8057 86.2222 58.9219C86.1014 59.0381 85.9533 59.1315 85.7778 59.2021C85.6047 59.2728 85.4064 59.3081 85.1831 59.3081C84.8755 59.3081 84.5998 59.2363 84.356 59.0928C84.1121 58.9492 83.9196 58.7533 83.7783 58.5049C83.637 58.2542 83.5664 57.9717 83.5664 57.6572V57.6504C83.5664 57.3223 83.6405 57.0306 83.7886 56.7754C83.939 56.5179 84.144 56.3162 84.4038 56.1704C84.6659 56.0246 84.9621 55.9517 85.2925 55.9517ZM88.625 60.2993C88.5042 60.2993 88.3994 60.256 88.3105 60.1694C88.224 60.0806 88.1807 59.9757 88.1807 59.855C88.1807 59.7319 88.224 59.6271 88.3105 59.5405C88.3994 59.4539 88.5042 59.4106 88.625 59.4106C88.748 59.4106 88.8529 59.4539 88.9395 59.5405C89.026 59.6271 89.0693 59.7319 89.0693 59.855C89.0693 59.9757 89.026 60.0806 88.9395 60.1694C88.8529 60.256 88.748 60.2993 88.625 60.2993ZM88.625 57.6538C88.5042 57.6538 88.3994 57.6105 88.3105 57.5239C88.224 57.4351 88.1807 57.3302 88.1807 57.2095C88.1807 57.0864 88.224 56.9816 88.3105 56.895C88.3994 56.8084 88.5042 56.7651 88.625 56.7651C88.748 56.7651 88.8529 56.8084 88.9395 56.895C89.026 56.9816 89.0693 57.0864 89.0693 57.2095C89.0693 57.3302 89.026 57.4351 88.9395 57.5239C88.8529 57.6105 88.748 57.6538 88.625 57.6538ZM90.2485 61V60.5762L91.9165 58.7715C92.1261 58.5436 92.2902 58.3556 92.4087 58.2075C92.5272 58.0571 92.6104 57.9215 92.6582 57.8008C92.7061 57.68 92.73 57.5479 92.73 57.4043V57.3975C92.73 57.2243 92.6924 57.0693 92.6172 56.9326C92.542 56.7959 92.4349 56.6877 92.2959 56.6079C92.1569 56.5282 91.9906 56.4883 91.7969 56.4883C91.6009 56.4883 91.4289 56.5293 91.2808 56.6113C91.1326 56.6911 91.0176 56.8039 90.9355 56.9497C90.8535 57.0933 90.8125 57.2619 90.8125 57.4556L90.8091 57.4624L90.2212 57.459L90.2144 57.4556C90.2166 57.1639 90.2873 56.9053 90.4263 56.6797C90.5653 56.4518 90.7567 56.2741 91.0005 56.1465C91.2443 56.0166 91.5234 55.9517 91.8379 55.9517C92.125 55.9517 92.3836 56.012 92.6138 56.1328C92.8439 56.2513 93.0251 56.4142 93.1572 56.6216C93.2917 56.8289 93.3589 57.0659 93.3589 57.3325V57.3394C93.3589 57.5262 93.3258 57.7062 93.2598 57.8794C93.196 58.0526 93.082 58.2451 92.918 58.457C92.7539 58.6667 92.5226 58.9253 92.2241 59.2329L90.9492 60.5488L91.103 60.2651V60.5488L90.9526 60.4463H93.4409V61H90.2485ZM96.124 61.1162C95.7594 61.1162 95.4473 61.0114 95.1875 60.8018C94.93 60.5921 94.7318 60.2948 94.5928 59.9097C94.4538 59.5223 94.3843 59.0643 94.3843 58.5356V58.5288C94.3843 58.0002 94.4538 57.5433 94.5928 57.1582C94.7318 56.7731 94.93 56.4757 95.1875 56.2661C95.4473 56.0565 95.7594 55.9517 96.124 55.9517C96.4886 55.9517 96.8008 56.0565 97.0605 56.2661C97.3203 56.4757 97.5197 56.7731 97.6587 57.1582C97.8 57.5433 97.8706 58.0002 97.8706 58.5288V58.5356C97.8706 59.0643 97.8 59.5223 97.6587 59.9097C97.5197 60.2948 97.3203 60.5921 97.0605 60.8018C96.8008 61.0114 96.4886 61.1162 96.124 61.1162ZM96.124 60.5796C96.361 60.5796 96.5627 60.4964 96.729 60.3301C96.8976 60.1637 97.0264 59.9279 97.1152 59.6226C97.2064 59.3172 97.252 58.9549 97.252 58.5356V58.5288C97.252 58.1095 97.2064 57.7484 97.1152 57.4453C97.0264 57.14 96.8976 56.9053 96.729 56.7412C96.5627 56.5749 96.361 56.4917 96.124 56.4917C95.8893 56.4917 95.6877 56.5749 95.519 56.7412C95.3527 56.9053 95.2251 57.14 95.1362 57.4453C95.0474 57.7484 95.0029 58.1095 95.0029 58.5288V58.5356C95.0029 58.9549 95.0474 59.3172 95.1362 59.6226C95.2251 59.9279 95.3527 60.1637 95.519 60.3301C95.6877 60.4964 95.8893 60.5796 96.124 60.5796ZM99.207 62.2305H98.708C98.8311 62.0732 98.945 61.875 99.0498 61.6357C99.1569 61.3988 99.2492 61.1367 99.3267 60.8496C99.4041 60.5602 99.4645 60.2617 99.5078 59.9541C99.5511 59.6442 99.5728 59.34 99.5728 59.0415C99.5728 58.7453 99.5511 58.4434 99.5078 58.1357C99.4645 57.8258 99.4041 57.5273 99.3267 57.2402C99.2492 56.9508 99.1569 56.6865 99.0498 56.4473C98.945 56.208 98.8311 56.0098 98.708 55.8525H99.207C99.4303 56.1465 99.6138 56.4598 99.7573 56.7925C99.9009 57.1229 100.007 57.4749 100.075 57.8486C100.144 58.2201 100.178 58.6177 100.178 59.0415C100.178 59.4653 100.142 59.8641 100.072 60.2378C100.003 60.6115 99.8975 60.9635 99.7539 61.2939C99.6126 61.6243 99.4303 61.9365 99.207 62.2305Z" fill="#676767"/>
<path d="M25.332 46.3711C27.9883 46.3711 29.9023 48.793 29.9219 52.6016C29.9023 56.4492 27.9883 58.8516 25.332 58.8516C22.6562 58.8516 20.7227 56.4492 20.7422 52.6016C20.7227 48.793 22.6562 46.3711 25.332 46.3711ZM25.332 48.3242C23.8477 48.3242 22.832 49.9062 22.832 52.6016C22.832 55.3164 23.8477 56.8984 25.332 56.8984C26.8359 56.8984 27.832 55.3164 27.832 52.6016C27.832 49.9062 26.8359 48.3242 25.332 48.3242ZM34.4141 45.082V51.8594H37.1289V53.6953H34.4141V62.7383H32.2461V45.082H34.4141ZM49.3398 46.957V48.6758H45.5703C45.5801 50.6387 47.123 52.5625 49.9453 53.3047L48.9297 55.0039C46.8691 54.4375 45.3652 53.2266 44.5352 51.6641C43.7344 53.373 42.2305 54.7109 40.1211 55.3359L39.1055 53.6758C41.8887 52.8359 43.3926 50.7754 43.4023 48.6758H39.6328V46.957H43.4023V45.0234H45.5898V46.957H49.3398ZM53.5781 45.1016V55.4727H51.3906V45.1016H53.5781ZM53.5781 56.2734V62.5234H41.8594V56.2734H53.5781ZM44.0078 58.0117V60.7656H51.4492V58.0117H44.0078Z" fill="black"/>
<path d="M232 151.005V84.0001" stroke="#B7CAD7" stroke-width="1.5" stroke-linecap="round"/>
<path d="M248.066 88.7041V100.079H246.848V88.7041H248.066ZM244.677 89.9229C244.677 93.249 243.255 96.1436 239.357 98.0098L238.723 97.0322C241.75 95.5913 243.223 93.541 243.458 90.8877H239.269V89.9229H244.677ZM256.296 89.3389C256.296 90.6973 258.124 91.9795 260.307 92.2842L259.837 93.2236C258.022 92.9443 256.416 92.0557 255.686 90.8242C254.95 92.062 253.344 92.9443 251.522 93.2236L251.065 92.2842C253.249 91.9795 255.064 90.71 255.064 89.3389V88.8564H256.296V89.3389ZM260.866 94.0234V95.001H256.27V96.3467H259.596V100.079H258.378V97.3115H251.649V96.3467H255.077V95.001H250.494V94.0234H260.866ZM266.327 91.5986C266.315 93.6172 267.483 95.6738 269.184 96.499L268.435 97.4639C267.197 96.8228 266.238 95.5469 265.743 94.0234C265.229 95.6484 264.233 97.0068 262.938 97.6797L262.189 96.7021C263.941 95.8643 265.121 93.6807 265.121 91.5986V89.6562H266.327V91.5986ZM271.24 88.7041V93.2363H273.069V94.2646H271.24V100.079H270.034V88.7041H271.24ZM278.403 90.3418C278.39 91.916 279.47 93.3506 281.221 93.9346L280.612 94.8867C279.298 94.4233 278.308 93.4966 277.794 92.3096C277.286 93.5854 276.289 94.5947 274.937 95.0771L274.328 94.1377C276.105 93.5029 277.172 91.9668 277.172 90.3418V89.25H278.403V90.3418ZM283.697 96.0801V100.079H282.491V97.0576H275.991V96.0801H283.697ZM283.697 88.7041V95.5342H282.491V88.7041H283.697ZM295.1 88.7041V91.5859H296.738V92.5762H295.1V95.4199H293.881V88.7041H295.1ZM291.418 95.6357C293.742 95.6357 295.189 96.4482 295.189 97.8447C295.189 99.2412 293.742 100.066 291.418 100.054C289.07 100.066 287.597 99.2412 287.597 97.8447C287.597 96.4482 289.07 95.6357 291.418 95.6357ZM291.418 96.6133C289.768 96.6006 288.778 97.0576 288.79 97.8447C288.778 98.6318 289.768 99.0889 291.418 99.0889C293.031 99.0889 294.021 98.6318 294.034 97.8447C294.021 97.0576 293.031 96.6006 291.418 96.6133ZM291.71 89.542V90.5195H287.826V93.6172C290.066 93.6108 291.329 93.541 292.764 93.249L292.878 94.2266C291.355 94.5439 289.996 94.5947 287.534 94.5947H286.632V89.542H291.71Z" fill="black"/>
<path d="M243.477 116H242.745L245.313 108.93H246.065L248.633 116H247.901L247.159 113.9H244.219L243.477 116ZM244.444 113.285H246.944L245.713 109.828H245.665L244.444 113.285ZM259.297 108.148V113.422H258.711V111.078H257.432V113.354H256.846V108.295H257.432V110.561H258.711V108.148H259.297ZM259.297 113.92V116.635H253.672V113.92H259.297ZM254.277 114.428V116.127H258.701V114.428H254.277ZM256.445 109.184V109.701H251.963V109.184H253.906V108.178H254.522V109.184H256.445ZM254.209 110.189C255.303 110.189 256.045 110.756 256.055 111.654C256.045 112.543 255.303 113.119 254.209 113.119C253.115 113.119 252.363 112.543 252.373 111.654C252.363 110.756 253.115 110.189 254.209 110.189ZM254.209 110.668C253.447 110.668 252.92 111.059 252.92 111.654C252.92 112.24 253.447 112.641 254.209 112.641C254.971 112.641 255.488 112.24 255.488 111.654C255.488 111.059 254.971 110.668 254.209 110.668ZM267.954 108.148V116.771H267.349V111.928H265.122V114.545H261.216V108.822H261.831V111.117H264.526V108.822H265.122V111.41H267.349V108.148H267.954ZM261.831 114.027H264.526V111.625H261.831V114.027ZM276.787 108.148V116.762H276.181V112.182H274.013V111.654H276.181V108.148H276.787ZM274.023 109.096C274.023 111.488 272.92 113.666 270.088 115.062L269.736 114.584C272.124 113.422 273.266 111.654 273.408 109.604H270.097V109.096H274.023ZM243.399 130V122.93H245.811C247.208 122.93 247.901 123.721 247.901 124.785C247.901 125.664 247.403 126.152 246.768 126.318V126.377C247.461 126.426 248.184 127.061 248.184 128.145C248.184 129.209 247.481 130 245.938 130H243.399ZM245.928 129.375C247.012 129.375 247.51 128.848 247.51 128.135C247.51 127.344 246.895 126.709 245.958 126.709H244.092V129.375H245.928ZM245.85 126.104C246.67 126.104 247.237 125.557 247.237 124.785C247.237 124.062 246.758 123.555 245.801 123.555H244.092V126.104H245.85ZM258.975 122.148V130.762H258.369V122.148H258.975ZM257.041 123.125V123.643H255.996V127.92C256.519 127.886 257.036 127.842 257.529 127.783L257.568 128.252C255.674 128.535 253.565 128.564 251.963 128.574L251.885 128.027L253.154 128.018V123.643H252.109V123.125H257.041ZM253.75 128.008C254.282 127.998 254.839 127.979 255.391 127.949V123.643H253.75V128.008ZM263.559 124.893C263.559 126.289 264.653 127.812 265.845 128.389L265.483 128.877C264.526 128.394 263.652 127.339 263.267 126.143C262.871 127.437 261.933 128.589 260.991 129.092L260.61 128.604C261.782 128.018 262.954 126.377 262.964 124.893V123.574H260.913V123.047H265.571V123.574H263.559V124.893ZM267.368 122.148V125.693H268.852V126.221H267.368V130.762H266.753V122.148H267.368ZM279.077 124.873V125.4H273.305V124.873H275.883V123.682H276.508V124.873H279.077ZM276.186 126.064C277.397 126.064 278.266 126.699 278.276 127.598C278.266 128.496 277.397 129.131 276.186 129.131C274.985 129.131 274.106 128.496 274.116 127.598C274.106 126.699 274.985 126.064 276.186 126.064ZM276.186 126.602C275.366 126.592 274.741 127.021 274.741 127.598C274.741 128.174 275.366 128.613 276.186 128.604C277.016 128.613 277.641 128.174 277.641 127.598C277.641 127.021 277.016 126.592 276.186 126.602ZM287.919 124.873V125.4H282.148V124.873H284.726V123.682H285.351V124.873H287.919ZM285.029 126.064C286.24 126.064 287.109 126.699 287.118 127.598C287.109 128.496 286.24 129.131 285.029 129.131C283.827 129.131 282.949 128.496 282.958 127.598C282.949 126.699 283.827 126.064 285.029 126.064ZM285.029 126.602C284.208 126.592 283.583 127.021 283.583 127.598C283.583 128.174 284.208 128.613 285.029 128.604C285.859 128.613 286.484 128.174 286.484 127.598C286.484 127.021 285.859 126.592 285.029 126.602ZM248.272 139.146C248.077 138.18 247.237 137.486 246.163 137.486C244.834 137.486 243.77 138.531 243.77 140.465C243.77 142.398 244.834 143.443 246.163 143.443C247.237 143.443 248.077 142.75 248.272 141.783H248.975C248.741 143.102 247.657 144.098 246.163 144.098C244.366 144.098 243.086 142.682 243.086 140.465C243.086 138.248 244.366 136.832 246.163 136.832C247.657 136.832 248.731 137.809 248.975 139.146H248.272ZM259.356 136.148V138.834H260.684V139.361H259.356V142.496H258.731V136.148H259.356ZM257.031 136.822C257.031 139 255.4 140.65 252.949 141.441L252.686 140.943C254.785 140.27 256.211 138.971 256.367 137.34H253.027V136.822H257.031ZM259.775 144.039V144.557H254.014V141.842H254.629V144.039H259.775ZM264.321 137.809C264.321 138.98 265.249 139.996 266.479 140.416L266.177 140.895C265.19 140.558 264.399 139.85 264.038 138.941C263.672 139.967 262.827 140.758 261.802 141.139L261.489 140.641C262.739 140.211 263.716 139.107 263.725 137.818V137.32H261.694V136.803H266.323V137.32H264.321V137.809ZM268.198 136.148V138.414H269.526V138.932H268.198V141.373H267.583V136.148H268.198ZM265.454 141.627C267.212 141.627 268.267 142.193 268.267 143.17C268.267 144.166 267.212 144.732 265.454 144.732C263.696 144.732 262.622 144.166 262.632 143.17C262.622 142.193 263.696 141.627 265.454 141.627ZM265.454 142.135C264.097 142.135 263.227 142.535 263.237 143.17C263.227 143.834 264.097 144.234 265.454 144.234C266.811 144.234 267.671 143.834 267.671 143.17C267.671 142.535 266.811 142.135 265.454 142.135ZM272.842 138.678C272.832 140.064 273.613 141.539 274.746 142.154L274.365 142.643C273.515 142.149 272.861 141.207 272.549 140.123C272.226 141.305 271.543 142.32 270.664 142.848L270.254 142.389C271.425 141.725 272.246 140.191 272.246 138.707V136.979H272.842V138.678ZM277.685 136.148V144.762H277.09V140.172H275.761V144.312H275.156V136.344H275.761V139.645H277.09V136.148H277.685ZM287.045 141.119V141.646H283.383V144.762H282.788V141.646H279.165V141.119H287.045ZM283.09 136.51C284.887 136.51 286.088 137.232 286.088 138.385C286.088 139.527 284.887 140.25 283.09 140.25C281.293 140.25 280.092 139.527 280.092 138.385C280.092 137.232 281.293 136.51 283.09 136.51ZM283.09 137.018C281.684 137.018 280.717 137.564 280.717 138.385C280.717 139.205 281.684 139.742 283.09 139.742C284.487 139.742 285.463 139.205 285.463 138.385C285.463 137.564 284.487 137.018 283.09 137.018ZM290.849 137.809C290.849 138.98 291.777 139.996 293.007 140.416L292.704 140.895C291.718 140.558 290.927 139.85 290.566 138.941C290.2 139.967 289.355 140.758 288.329 141.139L288.017 140.641C289.267 140.211 290.243 139.107 290.253 137.818V137.32H288.222V136.803H292.851V137.32H290.849V137.809ZM294.726 136.148V138.414H296.054V138.932H294.726V141.373H294.111V136.148H294.726ZM291.982 141.627C293.74 141.627 294.794 142.193 294.794 143.17C294.794 144.166 293.74 144.732 291.982 144.732C290.224 144.732 289.15 144.166 289.159 143.17C289.15 142.193 290.224 141.627 291.982 141.627ZM291.982 142.135C290.624 142.135 289.755 142.535 289.765 143.17C289.755 143.834 290.624 144.234 291.982 144.234C293.339 144.234 294.199 143.834 294.199 143.17C294.199 142.535 293.339 142.135 291.982 142.135Z" fill="black"/>
<path d="M132 151.005V84.0001" stroke="#B7CAD7" stroke-width="1.5" stroke-linecap="round"/>
<path d="M148.597 89.7959V91.0146C148.584 92.4492 148.584 93.9473 148.178 96.1182L146.997 95.9912C147.391 93.9346 147.391 92.4111 147.391 91.0146V90.7734H140.421V89.7959H148.597ZM149.727 97.54V98.543H139.354V97.54H141.805V93.8584H143.011V97.54H144.648V93.8584H145.829V97.54H149.727ZM155.379 90.3418C155.366 91.916 156.445 93.3506 158.197 93.9346L157.587 94.8867C156.274 94.4233 155.283 93.4966 154.769 92.3096C154.261 93.5854 153.265 94.5947 151.913 95.0771L151.303 94.1377C153.081 93.5029 154.147 91.9668 154.147 90.3418V89.25H155.379V90.3418ZM160.672 96.0801V100.079H159.466V97.0576H152.966V96.0801H160.672ZM160.672 88.7041V95.5342H159.466V88.7041H160.672ZM172.583 88.7168V97.3369H171.377V96.2451H169.092V95.3945H171.377V88.7168H172.583ZM172.862 98.8604V99.8379H164.649V96.499H165.842V98.8604H172.862ZM163.074 93.9092C165.182 93.8965 168.013 93.8711 170.438 93.5664L170.514 94.4297C169.543 94.5884 168.521 94.6963 167.518 94.7598V96.9814H166.312V94.8232C165.207 94.874 164.147 94.8804 163.227 94.874L163.074 93.9092ZM166.794 89.1484C168.457 89.1484 169.612 89.9482 169.612 91.1543C169.612 92.3604 168.457 93.1348 166.794 93.1348C165.106 93.1348 163.963 92.3604 163.963 91.1543C163.963 89.9482 165.106 89.1484 166.794 89.1484ZM166.794 90.0498C165.779 90.0371 165.093 90.4688 165.106 91.1543C165.093 91.8271 165.779 92.2461 166.794 92.2461C167.772 92.2461 168.457 91.8271 168.47 91.1543C168.457 90.4688 167.772 90.0371 166.794 90.0498ZM179.149 90.3418C179.137 91.916 180.216 93.3506 181.968 93.9346L181.358 94.8867C180.044 94.4233 179.054 93.4966 178.54 92.3096C178.032 93.5854 177.035 94.5947 175.683 95.0771L175.074 94.1377C176.851 93.5029 177.918 91.9668 177.918 90.3418V89.25H179.149V90.3418ZM184.443 96.0801V100.079H183.237V97.0576H176.737V96.0801H184.443ZM184.443 88.7041V95.5342H183.237V88.7041H184.443ZM195.846 88.7041V91.5859H197.484V92.5762H195.846V95.4199H194.627V88.7041H195.846ZM192.164 95.6357C194.488 95.6357 195.935 96.4482 195.935 97.8447C195.935 99.2412 194.488 100.066 192.164 100.054C189.816 100.066 188.343 99.2412 188.343 97.8447C188.343 96.4482 189.816 95.6357 192.164 95.6357ZM192.164 96.6133C190.514 96.6006 189.524 97.0576 189.537 97.8447C189.524 98.6318 190.514 99.0889 192.164 99.0889C193.777 99.0889 194.767 98.6318 194.78 97.8447C194.767 97.0576 193.777 96.6006 192.164 96.6133ZM192.456 89.542V90.5195H188.572V93.6172C190.812 93.6108 192.076 93.541 193.51 93.249L193.624 94.2266C192.101 94.5439 190.743 94.5947 188.28 94.5947H187.378V89.542H192.456Z" fill="black"/>
<path d="M144.24 116H143.508L146.076 108.93H146.828L149.396 116H148.664L147.922 113.9H144.982L144.24 116ZM145.207 113.285H147.707L146.477 109.828H146.428L145.207 113.285ZM160.06 108.148V113.422H159.474V111.078H158.195V113.354H157.609V108.295H158.195V110.561H159.474V108.148H160.06ZM160.06 113.92V116.635H154.435V113.92H160.06ZM155.041 114.428V116.127H159.464V114.428H155.041ZM157.209 109.184V109.701H152.726V109.184H154.67V108.178H155.285V109.184H157.209ZM154.972 110.189C156.066 110.189 156.808 110.756 156.818 111.654C156.808 112.543 156.066 113.119 154.972 113.119C153.879 113.119 153.127 112.543 153.136 111.654C153.127 110.756 153.879 110.189 154.972 110.189ZM154.972 110.668C154.211 110.668 153.683 111.059 153.683 111.654C153.683 112.24 154.211 112.641 154.972 112.641C155.734 112.641 156.252 112.24 156.252 111.654C156.252 111.059 155.734 110.668 154.972 110.668ZM168.717 108.148V116.771H168.112V111.928H165.885V114.545H161.979V108.822H162.594V111.117H165.289V108.822H165.885V111.41H168.112V108.148H168.717ZM162.594 114.027H165.289V111.625H162.594V114.027ZM177.55 108.148V116.762H176.945V112.182H174.777V111.654H176.945V108.148H177.55ZM174.786 109.096C174.786 111.488 173.683 113.666 170.851 115.062L170.499 114.584C172.887 113.422 174.029 111.654 174.171 109.604H170.861V109.096H174.786ZM144.162 130V122.93H146.574C147.971 122.93 148.664 123.721 148.664 124.785C148.664 125.664 148.166 126.152 147.531 126.318V126.377C148.225 126.426 148.947 127.061 148.947 128.145C148.947 129.209 148.244 130 146.701 130H144.162ZM146.691 129.375C147.775 129.375 148.273 128.848 148.273 128.135C148.273 127.344 147.658 126.709 146.721 126.709H144.855V129.375H146.691ZM146.613 126.104C147.434 126.104 148 125.557 148 124.785C148 124.062 147.521 123.555 146.564 123.555H144.855V126.104H146.613ZM159.738 122.148V130.762H159.132V122.148H159.738ZM157.804 123.125V123.643H156.759V127.92C157.282 127.886 157.799 127.842 158.293 127.783L158.332 128.252C156.437 128.535 154.328 128.564 152.726 128.574L152.648 128.027L153.918 128.018V123.643H152.873V123.125H157.804ZM154.513 128.008C155.046 127.998 155.602 127.979 156.154 127.949V123.643H154.513V128.008ZM164.323 124.893C164.323 126.289 165.416 127.812 166.608 128.389L166.246 128.877C165.289 128.394 164.415 127.339 164.03 126.143C163.634 127.437 162.697 128.589 161.754 129.092L161.373 128.604C162.545 128.018 163.717 126.377 163.727 124.893V123.574H161.676V123.047H166.334V123.574H164.323V124.893ZM168.131 122.148V125.693H169.616V126.221H168.131V130.762H167.516V122.148H168.131ZM179.84 124.873V125.4H174.068V124.873H176.646V123.682H177.271V124.873H179.84ZM176.949 126.064C178.16 126.064 179.029 126.699 179.039 127.598C179.029 128.496 178.16 129.131 176.949 129.131C175.748 129.131 174.869 128.496 174.879 127.598C174.869 126.699 175.748 126.064 176.949 126.064ZM176.949 126.602C176.129 126.592 175.504 127.021 175.504 127.598C175.504 128.174 176.129 128.613 176.949 128.604C177.779 128.613 178.404 128.174 178.404 127.598C178.404 127.021 177.779 126.592 176.949 126.602ZM188.682 124.873V125.4H182.911V124.873H185.489V123.682H186.114V124.873H188.682ZM185.792 126.064C187.003 126.064 187.872 126.699 187.882 127.598C187.872 128.496 187.003 129.131 185.792 129.131C184.591 129.131 183.712 128.496 183.721 127.598C183.712 126.699 184.591 126.064 185.792 126.064ZM185.792 126.602C184.971 126.592 184.346 127.021 184.346 127.598C184.346 128.174 184.971 128.613 185.792 128.604C186.622 128.613 187.247 128.174 187.247 127.598C187.247 127.021 186.622 126.592 185.792 126.602ZM149.035 139.146C148.84 138.18 148 137.486 146.926 137.486C145.598 137.486 144.533 138.531 144.533 140.465C144.533 142.398 145.598 143.443 146.926 143.443C148 143.443 148.84 142.75 149.035 141.783H149.738C149.504 143.102 148.42 144.098 146.926 144.098C145.129 144.098 143.85 142.682 143.85 140.465C143.85 138.248 145.129 136.832 146.926 136.832C148.42 136.832 149.494 137.809 149.738 139.146H149.035ZM160.119 136.148V138.834H161.447V139.361H160.119V142.496H159.494V136.148H160.119ZM157.795 136.822C157.795 139 156.164 140.65 153.712 141.441L153.449 140.943C155.548 140.27 156.974 138.971 157.13 137.34H153.791V136.822H157.795ZM160.539 144.039V144.557H154.777V141.842H155.392V144.039H160.539ZM165.084 137.809C165.084 138.98 166.012 139.996 167.243 140.416L166.94 140.895C165.954 140.558 165.163 139.85 164.801 138.941C164.435 139.967 163.59 140.758 162.565 141.139L162.252 140.641C163.502 140.211 164.479 139.107 164.489 137.818V137.32H162.457V136.803H167.086V137.32H165.084V137.809ZM168.961 136.148V138.414H170.289V138.932H168.961V141.373H168.346V136.148H168.961ZM166.217 141.627C167.975 141.627 169.03 142.193 169.03 143.17C169.03 144.166 167.975 144.732 166.217 144.732C164.459 144.732 163.385 144.166 163.395 143.17C163.385 142.193 164.459 141.627 166.217 141.627ZM166.217 142.135C164.86 142.135 163.991 142.535 164 143.17C163.991 143.834 164.86 144.234 166.217 144.234C167.575 144.234 168.434 143.834 168.434 143.17C168.434 142.535 167.575 142.135 166.217 142.135ZM173.605 138.678C173.595 140.064 174.376 141.539 175.509 142.154L175.128 142.643C174.279 142.149 173.624 141.207 173.312 140.123C172.989 141.305 172.306 142.32 171.427 142.848L171.017 142.389C172.189 141.725 173.009 140.191 173.009 138.707V136.979H173.605V138.678ZM178.448 136.148V144.762H177.853V140.172H176.525V144.312H175.919V136.344H176.525V139.645H177.853V136.148H178.448ZM187.809 141.119V141.646H184.146V144.762H183.551V141.646H179.928V141.119H187.809ZM183.854 136.51C185.65 136.51 186.852 137.232 186.852 138.385C186.852 139.527 185.65 140.25 183.854 140.25C182.057 140.25 180.855 139.527 180.855 138.385C180.855 137.232 182.057 136.51 183.854 136.51ZM183.854 137.018C182.447 137.018 181.48 137.564 181.48 138.385C181.48 139.205 182.447 139.742 183.854 139.742C185.25 139.742 186.227 139.205 186.227 138.385C186.227 137.564 185.25 137.018 183.854 137.018ZM191.612 137.809C191.612 138.98 192.54 139.996 193.77 140.416L193.468 140.895C192.481 140.558 191.69 139.85 191.329 138.941C190.963 139.967 190.118 140.758 189.093 141.139L188.78 140.641C190.03 140.211 191.007 139.107 191.016 137.818V137.32H188.985V136.803H193.614V137.32H191.612V137.809ZM195.489 136.148V138.414H196.817V138.932H195.489V141.373H194.874V136.148H195.489ZM192.745 141.627C194.503 141.627 195.557 142.193 195.557 143.17C195.557 144.166 194.503 144.732 192.745 144.732C190.987 144.732 189.913 144.166 189.923 143.17C189.913 142.193 190.987 141.627 192.745 141.627ZM192.745 142.135C191.388 142.135 190.518 142.535 190.528 143.17C190.518 143.834 191.388 144.234 192.745 144.234C194.102 144.234 194.962 143.834 194.962 143.17C194.962 142.535 194.102 142.135 192.745 142.135Z" fill="black"/>
<path d="M31 151.005L31 84.0001" stroke="#B7CAD7" stroke-width="1.5" stroke-linecap="round"/>
<path d="M45.2109 89.8594V90.8242H38.4316V89.8594H41.2246V88.6533H42.4307V89.8594H45.2109ZM41.8213 91.332C43.459 91.3447 44.5762 92.1572 44.5762 93.4014C44.5762 94.6455 43.459 95.4707 41.8213 95.4707C40.1709 95.4707 39.0537 94.6455 39.0537 93.4014C39.0537 92.1572 40.1709 91.3447 41.8213 91.332ZM41.8213 92.2588C40.8564 92.2588 40.209 92.7031 40.2217 93.4014C40.209 94.1123 40.8564 94.5312 41.8213 94.5312C42.7861 94.5312 43.4336 94.1123 43.4463 93.4014C43.4336 92.7031 42.7861 92.2588 41.8213 92.2588ZM47.3564 88.7041V91.7891H49.0068V92.792H47.3564V95.8135H46.1504V88.7041H47.3564ZM47.3564 96.3975V100.079H46.1504V97.375H39.8408V96.3975H47.3564ZM59.5465 89.7959V91.0146C59.5338 92.4492 59.5338 93.9473 59.1275 96.1182L57.9469 95.9912C58.3404 93.9346 58.3404 92.4111 58.3404 91.0146V90.7734H51.3707V89.7959H59.5465ZM60.6764 97.54V98.543H50.3043V97.54H52.7545V93.8584H53.9605V97.54H55.5982V93.8584H56.7789V97.54H60.6764ZM66.3283 90.3418C66.3156 91.916 67.3947 93.3506 69.1467 93.9346L68.5373 94.8867C67.2233 94.4233 66.2331 93.4966 65.7189 92.3096C65.2111 93.5854 64.2146 94.5947 62.8625 95.0771L62.2531 94.1377C64.0305 93.5029 65.0969 91.9668 65.0969 90.3418V89.25H66.3283V90.3418ZM71.6223 96.0801V100.079H70.4162V97.0576H63.9162V96.0801H71.6223ZM71.6223 88.7041V95.5342H70.4162V88.7041H71.6223ZM83.0252 88.7041V91.5859H84.6629V92.5762H83.0252V95.4199H81.8064V88.7041H83.0252ZM79.3436 95.6357C81.6668 95.6357 83.1141 96.4482 83.1141 97.8447C83.1141 99.2412 81.6668 100.066 79.3436 100.054C76.9949 100.066 75.5223 99.2412 75.5223 97.8447C75.5223 96.4482 76.9949 95.6357 79.3436 95.6357ZM79.3436 96.6133C77.6932 96.6006 76.7029 97.0576 76.7156 97.8447C76.7029 98.6318 77.6932 99.0889 79.3436 99.0889C80.9559 99.0889 81.9461 98.6318 81.9588 97.8447C81.9461 97.0576 80.9559 96.6006 79.3436 96.6133ZM79.6355 89.542V90.5195H75.7508V93.6172C77.9915 93.6108 79.2547 93.541 80.6893 93.249L80.8035 94.2266C79.2801 94.5439 77.9217 94.5947 75.4588 94.5947H74.5574V89.542H79.6355Z" fill="black"/>
<path d="M43.3696 116H42.6372L45.2056 108.93H45.9575L48.5259 116H47.7935L47.0513 113.9H44.1118L43.3696 116ZM44.3364 113.285H46.8364L45.606 109.828H45.5571L44.3364 113.285ZM59.1896 108.148V113.422H58.6036V111.078H57.3243V113.354H56.7384V108.295H57.3243V110.561H58.6036V108.148H59.1896ZM59.1896 113.92V116.635H53.5646V113.92H59.1896ZM54.17 114.428V116.127H58.5938V114.428H54.17ZM56.338 109.184V109.701H51.8556V109.184H53.7989V108.178H54.4142V109.184H56.338ZM54.1017 110.189C55.1954 110.189 55.9376 110.756 55.9474 111.654C55.9376 112.543 55.1954 113.119 54.1017 113.119C53.0079 113.119 52.256 112.543 52.2657 111.654C52.256 110.756 53.0079 110.189 54.1017 110.189ZM54.1017 110.668C53.3399 110.668 52.8126 111.059 52.8126 111.654C52.8126 112.24 53.3399 112.641 54.1017 112.641C54.8634 112.641 55.381 112.24 55.381 111.654C55.381 111.059 54.8634 110.668 54.1017 110.668ZM67.8466 108.148V116.771H67.2411V111.928H65.0146V114.545H61.1083V108.822H61.7235V111.117H64.4188V108.822H65.0146V111.41H67.2411V108.148H67.8466ZM61.7235 114.027H64.4188V111.625H61.7235V114.027ZM76.6794 108.148V116.762H76.0739V112.182H73.906V111.654H76.0739V108.148H76.6794ZM73.9157 109.096C73.9157 111.488 72.8122 113.666 69.9802 115.062L69.6286 114.584C72.0163 113.422 73.1589 111.654 73.3005 109.604H69.9899V109.096H73.9157ZM43.2915 130V122.93H45.7036C47.1001 122.93 47.7935 123.721 47.7935 124.785C47.7935 125.664 47.2954 126.152 46.6606 126.318V126.377C47.354 126.426 48.0767 127.061 48.0767 128.145C48.0767 129.209 47.3735 130 45.8306 130H43.2915ZM45.8208 129.375C46.9048 129.375 47.4028 128.848 47.4028 128.135C47.4028 127.344 46.7876 126.709 45.8501 126.709H43.9849V129.375H45.8208ZM45.7427 126.104C46.563 126.104 47.1294 125.557 47.1294 124.785C47.1294 124.062 46.6509 123.555 45.6938 123.555H43.9849V126.104H45.7427ZM58.8673 122.148V130.762H58.2618V122.148H58.8673ZM56.9337 123.125V123.643H55.8888V127.92C56.4112 127.886 56.9288 127.842 57.422 127.783L57.461 128.252C55.5665 128.535 53.4571 128.564 51.8556 128.574L51.7774 128.027L53.047 128.018V123.643H52.0021V123.125H56.9337ZM53.6427 128.008C54.1749 127.998 54.7315 127.979 55.2833 127.949V123.643H53.6427V128.008ZM63.4521 124.893C63.4521 126.289 64.5458 127.812 65.7372 128.389L65.3759 128.877C64.4188 128.394 63.5448 127.339 63.1591 126.143C62.7636 127.437 61.8261 128.589 60.8837 129.092L60.5028 128.604C61.6747 128.018 62.8466 126.377 62.8563 124.893V123.574H60.8056V123.047H65.4638V123.574H63.4521V124.893ZM67.2606 122.148V125.693H68.745V126.221H67.2606V130.762H66.6454V122.148H67.2606ZM78.9692 124.873V125.4H73.1978V124.873H75.7759V123.682H76.4009V124.873H78.9692ZM76.0786 126.064C77.2896 126.064 78.1587 126.699 78.1685 127.598C78.1587 128.496 77.2896 129.131 76.0786 129.131C74.8774 129.131 73.9985 128.496 74.0083 127.598C73.9985 126.699 74.8774 126.064 76.0786 126.064ZM76.0786 126.602C75.2583 126.592 74.6333 127.021 74.6333 127.598C74.6333 128.174 75.2583 128.613 76.0786 128.604C76.9087 128.613 77.5337 128.174 77.5337 127.598C77.5337 127.021 76.9087 126.592 76.0786 126.602ZM87.8118 124.873V125.4H82.0403V124.873H84.6185V123.682H85.2435V124.873H87.8118ZM84.9212 126.064C86.1321 126.064 87.0013 126.699 87.011 127.598C87.0013 128.496 86.1321 129.131 84.9212 129.131C83.72 129.131 82.8411 128.496 82.8509 127.598C82.8411 126.699 83.72 126.064 84.9212 126.064ZM84.9212 126.602C84.1009 126.592 83.4759 127.021 83.4759 127.598C83.4759 128.174 84.1009 128.613 84.9212 128.604C85.7513 128.613 86.3763 128.174 86.3763 127.598C86.3763 127.021 85.7513 126.592 84.9212 126.602ZM48.1646 139.146C47.9692 138.18 47.1294 137.486 46.0552 137.486C44.7271 137.486 43.6626 138.531 43.6626 140.465C43.6626 142.398 44.7271 143.443 46.0552 143.443C47.1294 143.443 47.9692 142.75 48.1646 141.783H48.8677C48.6333 143.102 47.5493 144.098 46.0552 144.098C44.2583 144.098 42.979 142.682 42.979 140.465C42.979 138.248 44.2583 136.832 46.0552 136.832C47.5493 136.832 48.6235 137.809 48.8677 139.146H48.1646ZM59.2481 136.148V138.834H60.5763V139.361H59.2481V142.496H58.6231V136.148H59.2481ZM56.9239 136.822C56.9239 139 55.2931 140.65 52.8419 141.441L52.5782 140.943C54.6778 140.27 56.1036 138.971 56.2599 137.34H52.92V136.822H56.9239ZM59.6681 144.039V144.557H53.9063V141.842H54.5216V144.039H59.6681ZM64.2138 137.809C64.2138 138.98 65.1415 139.996 66.372 140.416L66.0692 140.895C65.0829 140.558 64.2919 139.85 63.9306 138.941C63.5644 139.967 62.7196 140.758 61.6942 141.139L61.3817 140.641C62.6317 140.211 63.6083 139.107 63.6181 137.818V137.32H61.5868V136.803H66.2157V137.32H64.2138V137.809ZM68.0907 136.148V138.414H69.4188V138.932H68.0907V141.373H67.4755V136.148H68.0907ZM65.3466 141.627C67.1044 141.627 68.1591 142.193 68.1591 143.17C68.1591 144.166 67.1044 144.732 65.3466 144.732C63.5888 144.732 62.5146 144.166 62.5243 143.17C62.5146 142.193 63.5888 141.627 65.3466 141.627ZM65.3466 142.135C63.9892 142.135 63.12 142.535 63.1298 143.17C63.12 143.834 63.9892 144.234 65.3466 144.234C66.704 144.234 67.5634 143.834 67.5634 143.17C67.5634 142.535 66.704 142.135 65.3466 142.135ZM72.7341 138.678C72.7243 140.064 73.5056 141.539 74.6384 142.154L74.2575 142.643C73.4079 142.149 72.7536 141.207 72.4411 140.123C72.1188 141.305 71.4353 142.32 70.5563 142.848L70.1462 142.389C71.3181 141.725 72.1384 140.191 72.1384 138.707V136.979H72.7341V138.678ZM77.5778 136.148V144.762H76.9821V140.172H75.654V144.312H75.0485V136.344H75.654V139.645H76.9821V136.148H77.5778ZM86.938 141.119V141.646H83.2759V144.762H82.6802V141.646H79.0571V141.119H86.938ZM82.9829 136.51C84.7798 136.51 85.981 137.232 85.981 138.385C85.981 139.527 84.7798 140.25 82.9829 140.25C81.186 140.25 79.9849 139.527 79.9849 138.385C79.9849 137.232 81.186 136.51 82.9829 136.51ZM82.9829 137.018C81.5767 137.018 80.6099 137.564 80.6099 138.385C80.6099 139.205 81.5767 139.742 82.9829 139.742C84.3794 139.742 85.356 139.205 85.356 138.385C85.356 137.564 84.3794 137.018 82.9829 137.018ZM90.7415 137.809C90.7415 138.98 91.6692 139.996 92.8997 140.416L92.597 140.895C91.6106 140.558 90.8196 139.85 90.4583 138.941C90.0921 139.967 89.2474 140.758 88.222 141.139L87.9095 140.641C89.1595 140.211 90.136 139.107 90.1458 137.818V137.32H88.1146V136.803H92.7435V137.32H90.7415V137.809ZM94.6185 136.148V138.414H95.9466V138.932H94.6185V141.373H94.0032V136.148H94.6185ZM91.8743 141.627C93.6321 141.627 94.6868 142.193 94.6868 143.17C94.6868 144.166 93.6321 144.732 91.8743 144.732C90.1165 144.732 89.0423 144.166 89.0521 143.17C89.0423 142.193 90.1165 141.627 91.8743 141.627ZM91.8743 142.135C90.5169 142.135 89.6478 142.535 89.6575 143.17C89.6478 143.834 90.5169 144.234 91.8743 144.234C93.2317 144.234 94.0911 143.834 94.0911 143.17C94.0911 142.535 93.2317 142.135 91.8743 142.135Z" fill="black"/>
<path d="M24.6982 34.0879C23.415 34.0879 22.4922 33.3408 22.4922 32.3213C22.4922 31.5215 23.0635 30.8359 23.8193 30.7041V30.6689C23.1689 30.502 22.7295 29.9131 22.7295 29.2188C22.7295 28.2607 23.5732 27.5488 24.6982 27.5488C25.8145 27.5488 26.667 28.2607 26.667 29.2188C26.667 29.9131 26.2275 30.502 25.5859 30.6689V30.7041C26.333 30.8359 26.9043 31.5215 26.9131 32.3213C26.9043 33.3408 25.9727 34.0879 24.6982 34.0879ZM24.6982 33.5342C25.6475 33.5342 26.2891 33.0068 26.2891 32.2861C26.2891 31.5479 25.6123 30.9766 24.6982 30.9766C23.793 30.9766 23.1074 31.5479 23.1162 32.2861C23.1074 33.0068 23.749 33.5342 24.6982 33.5342ZM24.6982 30.4492C25.4717 30.4492 26.0605 29.9482 26.0605 29.2539C26.0605 28.5771 25.4893 28.0938 24.6982 28.0938C23.8984 28.0938 23.3359 28.5771 23.3359 29.2539C23.3359 29.9482 23.916 30.4492 24.6982 30.4492ZM34.0762 26.9336V31.5303H33.5225V31.0469H31.8965V30.6602H33.5225V26.9336H34.0762ZM27.7129 29.9219C29.2158 29.9307 31.1494 29.9043 32.8369 29.7109L32.8721 30.0977C32.0942 30.2031 31.2769 30.269 30.4814 30.3086V31.5654H29.9365V30.3262C29.1675 30.3569 28.4336 30.3613 27.7832 30.3613L27.7129 29.9219ZM34.0762 31.8291V33.3584H29.4971V34.1582H34.3662V34.5889H28.9521V32.9629H33.5312V32.2422H28.9258V31.8291H34.0762ZM30.2529 27.1006C31.4043 27.1006 32.1689 27.54 32.1689 28.2695C32.1689 28.999 31.4043 29.4297 30.2529 29.4209C29.084 29.4297 28.3369 28.999 28.3369 28.2695C28.3369 27.54 29.084 27.1006 30.2529 27.1006ZM30.2529 27.4961C29.4092 27.4961 28.8555 27.8125 28.8643 28.2695C28.8555 28.7178 29.4092 29.0342 30.2529 29.0254C31.0879 29.0342 31.6416 28.7178 31.6416 28.2695C31.6416 27.8125 31.0879 27.4961 30.2529 27.4961ZM40.0088 27.6367V34H39.376V28.2871H39.3408L37.8379 29.2803V28.6387L39.3584 27.6367H40.0088ZM43.7441 34.0879C42.6279 34.0879 41.793 33.3848 41.7666 32.4004H42.373C42.4082 33.0508 42.9883 33.5342 43.7441 33.5342C44.6318 33.5342 45.2734 32.8662 45.2646 31.9961C45.2646 31.082 44.5879 30.4492 43.7002 30.4404C43.1641 30.4404 42.7246 30.6162 42.4697 31.0293H41.8457L42.2852 27.6367H45.5986V28.1992H42.8125L42.54 30.2998H42.5928C42.874 30.0361 43.3311 29.8779 43.8057 29.8779C44.9746 29.8779 45.8799 30.748 45.8799 31.9873C45.8799 33.2002 44.9834 34.0879 43.7441 34.0879ZM48.9385 27.2324C50.0986 27.2412 50.9248 27.9355 50.9336 28.9375C50.9248 29.9482 50.0986 30.6338 48.9385 30.6338C47.7783 30.6338 46.9434 29.9482 46.9521 28.9375C46.9434 27.9355 47.7783 27.2412 48.9385 27.2324ZM48.9385 27.707C48.1035 27.707 47.4883 28.2256 47.4971 28.9375C47.4883 29.6494 48.1035 30.168 48.9385 30.168C49.7734 30.168 50.3975 29.6494 50.3975 28.9375C50.3975 28.2256 49.7734 27.707 48.9385 27.707ZM53.1221 26.9336V30.9414H52.5684V26.9336H53.1221ZM53.1221 31.3369V33.1299H48.6924V34.1143H53.4209V34.5713H48.1562V32.6992H52.5771V31.7939H48.1299V31.3369H53.1221ZM62.8428 27.3643V27.9268C62.8428 28.5288 62.8428 29.2539 62.623 30.2471H63.8008V30.7129H56.6992V30.2471H62.0605C62.2891 29.2451 62.2891 28.5288 62.2891 27.9268V27.8301H57.6133V27.3643H62.8428ZM62.8867 31.8555V34.5713H57.5869V31.8555H62.8867ZM58.1318 32.3037V34.1143H62.3418V32.3037H58.1318ZM71.5791 33.1826V33.6572H64.4775V33.1826H66.2881V31.0293C65.6069 30.6865 65.1982 30.1284 65.1982 29.4297C65.1982 28.2344 66.3584 27.4609 68.002 27.4521C69.6543 27.4609 70.8145 28.2344 70.8145 29.4297C70.8145 30.1196 70.4146 30.6733 69.751 31.0117V33.1826H71.5791ZM68.002 27.918C66.6836 27.9092 65.7256 28.5244 65.7256 29.4297C65.7256 30.3174 66.6836 30.9414 68.002 30.9326C69.3203 30.9414 70.2871 30.3174 70.2871 29.4297C70.2871 28.5244 69.3203 27.9092 68.002 27.918ZM66.833 33.1826H69.1973V31.2227C68.8413 31.3281 68.437 31.3809 68.002 31.3809C67.5757 31.3809 67.1802 31.3281 66.833 31.2314V33.1826ZM74.4443 27.2324C75.6045 27.2412 76.4307 27.9355 76.4395 28.9375C76.4307 29.9482 75.6045 30.6338 74.4443 30.6338C73.2842 30.6338 72.4492 29.9482 72.458 28.9375C72.4492 27.9355 73.2842 27.2412 74.4443 27.2324ZM74.4443 27.707C73.6094 27.707 72.9941 28.2256 73.0029 28.9375C72.9941 29.6494 73.6094 30.168 74.4443 30.168C75.2793 30.168 75.9033 29.6494 75.9033 28.9375C75.9033 28.2256 75.2793 27.707 74.4443 27.707ZM78.6279 26.9336V30.9414H78.0742V26.9336H78.6279ZM78.6279 31.3369V33.1299H74.1982V34.1143H78.9268V34.5713H73.6621V32.6992H78.083V31.7939H73.6357V31.3369H78.6279ZM84.5078 27.5488C85.6152 27.5576 86.7314 28.2959 86.7314 30.5459C86.7314 32.6553 85.9404 34.0879 84.4199 34.0879C83.3389 34.0879 82.5918 33.4023 82.4512 32.3916H83.0752C83.1982 33.0508 83.6641 33.5254 84.4199 33.5254C85.5098 33.5254 86.1426 32.541 86.1426 30.792H86.0723C85.7471 31.3545 85.123 31.7061 84.4199 31.7061C83.3037 31.7061 82.3896 30.8359 82.3896 29.6406C82.3896 28.4893 83.2246 27.54 84.5078 27.5488ZM84.5078 28.1025C83.6377 28.1025 82.9873 28.7969 82.9961 29.6318C82.9961 30.4844 83.6377 31.1523 84.5078 31.1523C85.3955 31.1523 86.0811 30.4141 86.0283 29.5967C85.9668 28.7617 85.3516 28.1025 84.5078 28.1025ZM88.3662 34.0439C88.1025 34.0439 87.8916 33.833 87.8916 33.5781C87.8916 33.3145 88.1025 33.1035 88.3662 33.1035C88.6211 33.1035 88.832 33.3145 88.832 33.5781C88.832 33.833 88.6211 34.0439 88.3662 34.0439ZM88.3662 30.3438C88.1025 30.3438 87.8916 30.1328 87.8916 29.8779C87.8916 29.6143 88.1025 29.4033 88.3662 29.4033C88.6211 29.4033 88.832 29.6143 88.832 29.8779C88.832 30.1328 88.6211 30.3438 88.3662 30.3438ZM89.9395 32.6465V32.1367L92.8398 27.6367H93.5957V32.0928H94.4658V32.6465H93.5957V34H92.998V32.6465H89.9395ZM90.6338 32.0928H92.998V28.4717H92.9365L90.6338 32.0488V32.0928ZM97.5068 27.6367V34H96.874V28.2871H96.8389L95.3359 29.2803V28.6387L96.8564 27.6367H97.5068Z" fill="black"/>
<rect x="295" y="22" width="41" height="20" rx="10" fill="#4D89B2"/>
<path d="M302.941 32.188H310.321V32.8H302.941V32.188ZM306.316 32.575H307.072V34.447H306.316V32.575ZM303.886 35.401H309.502V36.022H303.886V35.401ZM303.886 33.646H304.633V35.572H303.886V33.646ZM306.622 28.264C307.198 28.264 307.699 28.33 308.125 28.462C308.551 28.594 308.881 28.783 309.115 29.029C309.355 29.269 309.475 29.56 309.475 29.902C309.475 30.232 309.355 30.52 309.115 30.766C308.881 31.012 308.551 31.201 308.125 31.333C307.699 31.465 307.198 31.531 306.622 31.531C306.052 31.531 305.551 31.465 305.119 31.333C304.693 31.201 304.36 31.012 304.12 30.766C303.886 30.52 303.769 30.232 303.769 29.902C303.769 29.56 303.886 29.269 304.12 29.029C304.36 28.783 304.693 28.594 305.119 28.462C305.551 28.33 306.052 28.264 306.622 28.264ZM306.622 28.867C306.214 28.867 305.854 28.909 305.542 28.993C305.23 29.077 304.987 29.197 304.813 29.353C304.645 29.503 304.561 29.686 304.561 29.902C304.561 30.112 304.645 30.295 304.813 30.451C304.987 30.601 305.23 30.718 305.542 30.802C305.854 30.88 306.214 30.919 306.622 30.919C307.042 30.919 307.405 30.88 307.711 30.802C308.017 30.718 308.254 30.601 308.422 30.451C308.596 30.295 308.683 30.112 308.683 29.902C308.683 29.686 308.596 29.503 308.422 29.353C308.254 29.197 308.017 29.077 307.711 28.993C307.405 28.909 307.042 28.867 306.622 28.867ZM315.117 29.236H317.592V29.839H315.117V29.236ZM315.117 31.108H317.592V31.72H315.117V31.108ZM313.632 28.543C314.028 28.543 314.382 28.627 314.694 28.795C315.012 28.957 315.261 29.185 315.441 29.479C315.627 29.767 315.72 30.1 315.72 30.478C315.72 30.856 315.627 31.192 315.441 31.486C315.261 31.774 315.012 32.002 314.694 32.17C314.382 32.332 314.028 32.413 313.632 32.413C313.23 32.413 312.87 32.332 312.552 32.17C312.24 32.002 311.991 31.774 311.805 31.486C311.625 31.192 311.535 30.856 311.535 30.478C311.535 30.1 311.625 29.767 311.805 29.479C311.991 29.185 312.24 28.957 312.552 28.795C312.87 28.627 313.23 28.543 313.632 28.543ZM313.632 29.182C313.368 29.182 313.131 29.236 312.921 29.344C312.711 29.452 312.546 29.605 312.426 29.803C312.306 29.995 312.246 30.22 312.246 30.478C312.246 30.73 312.306 30.955 312.426 31.153C312.546 31.345 312.711 31.498 312.921 31.612C313.131 31.72 313.368 31.774 313.632 31.774C313.896 31.774 314.13 31.72 314.334 31.612C314.544 31.498 314.709 31.345 314.829 31.153C314.949 30.955 315.009 30.73 315.009 30.478C315.009 30.22 314.949 29.995 314.829 29.803C314.709 29.605 314.544 29.452 314.334 29.344C314.13 29.236 313.896 29.182 313.632 29.182ZM317.358 28.057H318.105V32.872H317.358V28.057ZM315.423 33.07C315.987 33.07 316.47 33.133 316.872 33.259C317.274 33.379 317.583 33.556 317.799 33.79C318.021 34.018 318.132 34.297 318.132 34.627C318.132 34.951 318.021 35.23 317.799 35.464C317.583 35.698 317.274 35.875 316.872 35.995C316.47 36.121 315.987 36.184 315.423 36.184C314.865 36.184 314.382 36.121 313.974 35.995C313.572 35.875 313.26 35.698 313.038 35.464C312.822 35.23 312.714 34.951 312.714 34.627C312.714 34.297 312.822 34.018 313.038 33.79C313.26 33.556 313.572 33.379 313.974 33.259C314.382 33.133 314.865 33.07 315.423 33.07ZM315.423 33.655C315.015 33.655 314.661 33.694 314.361 33.772C314.067 33.85 313.839 33.961 313.677 34.105C313.521 34.249 313.443 34.423 313.443 34.627C313.443 34.825 313.521 34.996 313.677 35.14C313.839 35.284 314.067 35.395 314.361 35.473C314.661 35.551 315.015 35.59 315.423 35.59C315.837 35.59 316.191 35.551 316.485 35.473C316.779 35.395 317.004 35.284 317.16 35.14C317.322 34.996 317.403 34.825 317.403 34.627C317.403 34.423 317.322 34.249 317.16 34.105C317.004 33.961 316.779 33.85 316.485 33.772C316.191 33.694 315.837 33.655 315.423 33.655ZM323.172 32.125H323.91V33.547H323.172V32.125ZM319.869 31.864H327.222V32.476H319.869V31.864ZM323.541 33.322C324.411 33.322 325.092 33.445 325.584 33.691C326.076 33.937 326.322 34.291 326.322 34.753C326.322 35.209 326.076 35.56 325.584 35.806C325.092 36.058 324.411 36.184 323.541 36.184C322.671 36.184 321.987 36.058 321.489 35.806C320.997 35.56 320.751 35.209 320.751 34.753C320.751 34.291 320.997 33.937 321.489 33.691C321.987 33.445 322.671 33.322 323.541 33.322ZM323.541 33.907C323.115 33.907 322.749 33.94 322.443 34.006C322.143 34.072 321.912 34.168 321.75 34.294C321.588 34.42 321.507 34.573 321.507 34.753C321.507 34.933 321.588 35.086 321.75 35.212C321.912 35.338 322.143 35.434 322.443 35.5C322.749 35.572 323.115 35.608 323.541 35.608C323.967 35.608 324.33 35.572 324.63 35.5C324.936 35.434 325.17 35.338 325.332 35.212C325.494 35.086 325.575 34.933 325.575 34.753C325.575 34.573 325.494 34.42 325.332 34.294C325.17 34.168 324.936 34.072 324.63 34.006C324.33 33.94 323.967 33.907 323.541 33.907ZM323.064 28.732H323.721V28.975C323.721 29.239 323.664 29.482 323.55 29.704C323.442 29.926 323.289 30.133 323.091 30.325C322.893 30.511 322.659 30.676 322.389 30.82C322.125 30.964 321.837 31.084 321.525 31.18C321.213 31.27 320.886 31.336 320.544 31.378L320.274 30.784C320.568 30.754 320.85 30.703 321.12 30.631C321.396 30.553 321.651 30.46 321.885 30.352C322.125 30.238 322.332 30.109 322.506 29.965C322.68 29.821 322.815 29.665 322.911 29.497C323.013 29.329 323.064 29.155 323.064 28.975V28.732ZM323.37 28.732H324.027V28.975C324.027 29.161 324.075 29.338 324.171 29.506C324.273 29.668 324.411 29.821 324.585 29.965C324.759 30.103 324.963 30.229 325.197 30.343C325.437 30.451 325.692 30.544 325.962 30.622C326.238 30.7 326.523 30.754 326.817 30.784L326.547 31.378C326.205 31.336 325.878 31.27 325.566 31.18C325.254 31.084 324.963 30.964 324.693 30.82C324.429 30.676 324.198 30.511 324 30.325C323.802 30.139 323.646 29.932 323.532 29.704C323.424 29.476 323.37 29.233 323.37 28.975V28.732ZM320.544 28.435H326.556V29.038H320.544V28.435Z" fill="white"/>
<defs>
<filter id="filter0_d_1_3439" x="0" y="0" width="356.668" height="190.577" filterUnits="userSpaceOnUse" color-interpolation-filters="sRGB">
<feFlood flood-opacity="0" result="BackgroundImageFix"/>
<feColorMatrix in="SourceAlpha" type="matrix" values="0 0 0 0 0 0 0 0 0 0 0 0 0 0 0 0 0 0 127 0" result="hardAlpha"/>
<feOffset dy="2"/>
<feGaussianBlur stdDeviation="2"/>
<feComposite in2="hardAlpha" operator="out"/>
<feColorMatrix type="matrix" values="0 0 0 0 0 0 0 0 0 0 0 0 0 0 0 0 0 0 0.25 0"/>
<feBlend mode="normal" in2="BackgroundImageFix" result="effect1_dropShadow_1_3439"/>
<feBlend mode="normal" in="SourceGraphic" in2="effect1_dropShadow_1_3439" result="shape"/>
</filter>
</defs>
</svg>
