<svg width="19" height="13" viewBox="0 0 19 13" fill="none" xmlns="http://www.w3.org/2000/svg">
<path d="M6.18164 10.7959C5.91309 10.4688 5.71045 10.105 5.57373 9.70459C5.43701 9.3042 5.36865 8.88672 5.36865 8.45215C5.36865 7.89551 5.47119 7.37305 5.67627 6.88477C5.88623 6.39648 6.17676 5.9668 6.54785 5.5957C6.91895 5.22461 7.34619 4.93408 7.82959 4.72412C8.31787 4.51416 8.83789 4.40918 9.38965 4.40918C9.94141 4.40918 10.459 4.51416 10.9424 4.72412C11.4307 4.93408 11.8604 5.22461 12.2314 5.5957C12.6025 5.9668 12.8906 6.39648 13.0957 6.88477C13.3057 7.37305 13.4106 7.89551 13.4106 8.45215C13.4106 8.88672 13.3423 9.3042 13.2056 9.70459C13.0688 10.105 12.8638 10.4688 12.5903 10.7959H10.3125C10.7324 10.6152 11.0864 10.3125 11.3745 9.8877C11.6675 9.46289 11.814 8.98682 11.814 8.45947C11.814 8.00537 11.7041 7.59521 11.4844 7.229C11.2646 6.85791 10.9692 6.5625 10.5981 6.34277C10.2319 6.12305 9.8291 6.01318 9.38965 6.01318C8.94531 6.01318 8.5376 6.12305 8.1665 6.34277C7.80029 6.5625 7.50732 6.85791 7.2876 7.229C7.06787 7.59521 6.95801 8.00537 6.95801 8.45947C6.95801 8.98682 7.10449 9.46289 7.39746 9.8877C7.69043 10.3125 8.04443 10.6152 8.45947 10.7959H6.18164ZM1.72852 8.75244C1.50879 8.75244 1.3208 8.68164 1.16455 8.54004C1.01318 8.39355 0.9375 8.21777 0.9375 8.0127C0.9375 7.80273 1.01318 7.62695 1.16455 7.48535C1.31592 7.33887 1.50391 7.26562 1.72852 7.26562H3.2373C3.46191 7.26562 3.6499 7.33887 3.80127 7.48535C3.95264 7.62695 4.02832 7.80273 4.02832 8.0127C4.02832 8.21777 3.95264 8.39355 3.80127 8.54004C3.6499 8.68164 3.46191 8.75244 3.2373 8.75244H1.72852ZM5.5957 4.66553C5.4541 4.81201 5.27588 4.88281 5.06104 4.87793C4.85107 4.86816 4.66797 4.78516 4.51172 4.62891L3.44238 3.56689C3.28125 3.41064 3.19824 3.22754 3.19336 3.01758C3.19336 2.80273 3.2666 2.62451 3.41309 2.48291C3.55957 2.33643 3.73779 2.26562 3.94775 2.27051C4.15771 2.27051 4.34082 2.35107 4.49707 2.51221L5.57373 3.57422C5.72998 3.73047 5.80811 3.91602 5.80811 4.13086C5.81299 4.34082 5.74219 4.51904 5.5957 4.66553ZM13.1763 4.66553C13.0298 4.51904 12.959 4.34082 12.9639 4.13086C12.9688 3.91602 13.0493 3.73047 13.2056 3.57422L14.2749 2.51221C14.436 2.35107 14.6216 2.27051 14.8315 2.27051C15.0415 2.26562 15.2173 2.33643 15.3589 2.48291C15.5054 2.62451 15.5762 2.80273 15.5713 3.01758C15.5713 3.22754 15.4932 3.41064 15.3369 3.56689L14.2676 4.62891C14.1113 4.78516 13.9258 4.86572 13.7109 4.87061C13.501 4.87549 13.3228 4.80713 13.1763 4.66553ZM15.5347 8.75244C15.3198 8.75244 15.1343 8.68164 14.978 8.54004C14.8267 8.39355 14.7485 8.21777 14.7437 8.0127C14.7437 7.80273 14.8218 7.62695 14.978 7.48535C15.1343 7.33887 15.3198 7.26562 15.5347 7.26562H17.0508C17.2754 7.26562 17.4609 7.33887 17.6074 7.48535C17.7588 7.62695 17.8345 7.80273 17.8345 8.0127C17.8345 8.21777 17.7588 8.39355 17.6074 8.54004C17.4609 8.68164 17.2754 8.75244 17.0508 8.75244H15.5347ZM9.38965 3.09814C9.18457 3.09814 9.00879 3.02002 8.8623 2.86377C8.71582 2.70752 8.64258 2.52197 8.64258 2.30713V0.791016C8.64258 0.566406 8.71582 0.378418 8.8623 0.227051C9.00879 0.0756836 9.18457 0 9.38965 0C9.59473 0 9.77051 0.0756836 9.91699 0.227051C10.0635 0.378418 10.1367 0.566406 10.1367 0.791016V2.30713C10.1367 2.52197 10.0635 2.70752 9.91699 2.86377C9.77051 3.01514 9.59473 3.09326 9.38965 3.09814ZM0.88623 12.2974C0.646973 12.2974 0.439453 12.207 0.263672 12.0264C0.0878906 11.8506 0 11.6479 0 11.4185C0 11.1792 0.0854492 10.9741 0.256348 10.8032C0.432129 10.6274 0.64209 10.5396 0.88623 10.5396H17.8857C18.1348 10.5396 18.3447 10.625 18.5156 10.7959C18.6865 10.9668 18.772 11.1743 18.772 11.4185C18.772 11.6528 18.6841 11.8579 18.5083 12.0337C18.3374 12.2095 18.1299 12.2974 17.8857 12.2974H0.88623Z" fill="black"/>
</svg>
